PathFileType	3	(X/Y/Z)	squats_2__fused_aligned.trc
DataRate	CameraRate	NumFrames	NumMarkers	Units	OrigDataRate	OrigDataStartFrame	OrigNumFrames
100.0	100.0	13	19	mm	100.0	716	1520
Frame#	Time	pelvis			neck			head			hip_left			hip_right			knee_left			knee_right			ankle_left			ankle_right			heel_left			heel_right			toe_left			toe_right			shoulder_left			shoulder_right			elbow_left			elbow_right			wrist_left			wrist_right			
		X1	Y1	Z1	X2	Y2	Z2	X3	Y3	Z3	X4	Y4	Z4	X5	Y5	Z5	X6	Y6	Z6	X7	Y7	Z7	X8	Y8	Z8	X9	Y9	Z9	X10	Y10	Z10	X11	Y11	Z11	X12	Y12	Z12	X13	Y13	Z13	X14	Y14	Z14	X15	Y15	Z15	X16	Y16	Z16	X17	Y17	Z17	X18	Y18	Z18	X19	Y19	Z19	
716	7.15000	62.932843	792.436819	61.705866	61.874386	1310.945556	-175.706025	61.131318	1423.818255	-311.296742	-15.458957	793.517184	63.550072	141.324881	791.356444	59.861669	-125.420624	471.121923	-189.893241	221.505840	460.058445	-190.788189	-115.946165	156.356862	53.568505	211.561146	127.434747	25.397836	-109.397508	121.601511	100.722079	205.165979	93.913093	73.490072	-144.517313	73.124571	-107.320170	240.611488	31.242627	-134.214790	-113.533443	1267.193274	-124.940791	237.789316	1249.428477	-137.564849	-240.819420	1011.989085	-93.512684	301.878906	968.486552	-134.471218	-247.317906	877.431514	-302.821050	282.315636	837.122725	-342.224848
717	7.16000	63.449288	787.273556	62.680436	62.090725	1304.368716	-176.095813	61.550308	1416.778002	-311.946679	-14.925961	788.353243	64.485545	141.824762	786.193861	60.875338	-125.212943	469.776757	-192.756765	222.632207	457.800109	-192.659030	-114.851843	156.788259	52.739059	211.782968	126.294878	24.979051	-108.243189	122.244351	100.030967	205.293823	92.933853	73.173969	-143.612080	73.325451	-107.763769	240.813998	29.808052	-134.287256	-113.233485	1260.750596	-125.258767	237.886682	1243.315206	-138.010462	-240.541960	1005.658704	-95.060085	302.017355	962.562139	-135.318020	-245.641933	871.979416	-304.914795	282.070021	831.760783	-342.857159
718	7.17000	63.965733	782.110294	63.655006	62.307065	1297.791877	-176.485600	61.969298	1409.737750	-312.596616	-14.392965	783.189301	65.421017	142.324644	781.031278	61.889007	-125.005262	468.431592	-195.620290	223.758575	455.541772	-194.529871	-113.757521	157.219657	51.909614	212.004791	125.155009	24.560266	-107.088869	122.887190	99.339856	205.421666	91.954613	72.857865	-142.706847	73.526331	-108.207368	241.016508	28.373477	-134.359722	-112.933527	1254.307919	-125.576744	237.984048	1237.201935	-138.456075	-240.264501	999.328322	-96.607485	302.155803	956.637725	-136.164822	-243.965959	866.527319	-307.008540	281.824405	826.398841	-343.489469
719	7.18000	64.482178	776.947031	64.629577	62.523404	1291.215038	-176.875388	62.388288	1402.697497	-313.246554	-13.859969	778.025359	66.356490	142.824526	775.868695	62.902677	-124.797581	467.086426	-198.483814	224.884942	453.283436	-196.400712	-112.663199	157.651055	51.080168	212.226614	124.015141	24.141481	-105.934549	123.530030	98.648744	205.549509	90.975372	72.541762	-141.801614	73.727212	-108.650967	241.219019	26.938902	-134.432188	-112.633569	1247.865241	-125.894720	238.081414	1231.088664	-138.901688	-239.987042	992.997940	-98.154886	302.294252	950.713312	-137.011625	-242.289985	861.075221	-309.102285	281.578790	821.036899	-344.121779
720	7.19000	64.998622	771.783768	65.604147	62.739743	1284.638199	-177.265175	62.807278	1395.657245	-313.896491	-13.326972	772.861418	67.291962	143.324407	770.706111	63.916346	-124.589900	465.741261	-201.347338	226.011310	451.025100	-198.271553	-111.568878	158.082452	50.250722	212.448437	122.875272	23.722697	-104.780230	124.172869	97.957632	205.677352	89.996132	72.225658	-140.896381	73.928092	-109.094566	241.421529	25.504327	-134.504654	-112.333610	1241.422564	-126.212696	238.178781	1224.975393	-139.347302	-239.709582	986.667559	-99.702286	302.432701	944.788898	-137.858427	-240.614011	855.623124	-311.196031	281.333174	815.674957	-344.754089
721	7.20000	65.515067	766.620506	66.578718	62.956082	1278.061360	-177.654963	63.226268	1388.616992	-314.546428	-12.793976	767.697476	68.227435	143.824289	765.543528	64.930015	-124.382219	464.396095	-204.210863	227.137678	448.766764	-200.142395	-110.474556	158.513850	49.421277	212.670260	121.735403	23.303912	-103.625910	124.815709	97.266520	205.805195	89.016892	71.909555	-139.991148	74.128972	-109.538165	241.624040	24.069752	-134.577120	-112.033652	1234.979886	-126.530673	238.276147	1218.862122	-139.792915	-239.432123	980.337177	-101.249687	302.571150	938.864485	-138.705230	-238.938038	850.171026	-313.289776	281.087558	810.313015	-345.386399
722	7.21000	66.031512	761.457243	67.553288	63.172421	1271.484520	-178.044750	63.645258	1381.576739	-315.196365	-12.260980	762.533535	69.162907	144.324171	760.380945	65.943685	-124.174538	463.050930	-207.074387	228.264045	446.508428	-202.013236	-109.380234	158.945248	48.591831	212.892082	120.595534	22.885127	-102.471590	125.458548	96.575408	205.933038	88.037652	71.593452	-139.085915	74.329853	-109.981764	241.826550	22.635177	-134.649586	-111.733694	1228.537208	-126.848649	238.373513	1212.748851	-140.238528	-239.154664	974.006796	-102.797087	302.709598	932.940072	-139.552032	-237.262064	844.718929	-315.383521	280.841943	804.951073	-346.018710
723	7.22000	66.547956	756.293980	68.527858	63.388760	1264.907681	-178.434538	64.064248	1374.536487	-315.846303	-11.727983	757.369593	70.098380	144.824052	755.218362	66.957354	-123.966857	461.705764	-209.937911	229.390413	444.250091	-203.884077	-108.285913	159.376645	47.762386	213.113905	119.455665	22.466342	-101.317271	126.101388	95.884296	206.060881	87.058412	71.277348	-138.180682	74.530733	-110.425363	242.029060	21.200602	-134.722052	-111.433736	1222.094531	-127.166626	238.470880	1206.635580	-140.684141	-238.877204	967.676414	-104.344488	302.848047	927.015658	-140.398834	-235.586090	839.266831	-317.477266	280.596327	799.589131	-346.651020
724	7.23000	67.064401	751.130717	69.502429	63.605099	1258.330842	-178.824325	64.483238	1367.496234	-316.496240	-11.194987	752.205651	71.033852	145.323934	750.055779	67.971023	-123.759176	460.360599	-212.801435	230.516780	441.991755	-205.754918	-107.191591	159.808043	46.932940	213.335728	118.315796	22.047558	-100.162951	126.744227	95.193184	206.188724	86.079172	70.961245	-137.275449	74.731614	-110.868962	242.231571	19.766028	-134.794518	-111.133778	1215.651853	-127.484602	238.568246	1200.522309	-141.129754	-238.599745	961.346032	-105.891888	302.986496	921.091245	-141.245637	-233.910116	833.814734	-319.571012	280.350711	794.227189	-347.283330
725	7.24000	67.580846	745.967455	70.476999	63.821439	1251.754003	-179.214113	64.902228	1360.455982	-317.146177	-10.661991	747.041710	71.969324	145.823815	744.893196	68.984692	-123.551495	459.015433	-215.664960	231.643148	439.733419	-207.625759	-106.097269	160.239441	46.103494	213.557551	117.175927	21.628773	-99.008631	127.387067	94.502072	206.316568	85.099932	70.645141	-136.370216	74.932494	-111.312561	242.434081	18.331453	-134.866984	-110.833819	1209.209176	-127.802578	238.665612	1194.409038	-141.575367	-238.322286	955.015651	-107.439289	303.124945	915.166831	-142.092439	-232.234142	828.362637	-321.664757	280.105096	788.865247	-347.915640
726	7.25000	68.097291	740.804192	71.451569	64.037778	1245.177164	-179.603900	65.321218	1353.415729	-317.796114	-10.128995	741.877768	72.904797	146.323697	739.730612	69.998362	-123.343814	457.670268	-218.528484	232.769515	437.475083	-209.496600	-105.002947	160.670838	45.274049	213.779374	116.036058	21.209988	-97.854311	128.029906	93.810960	206.444411	84.120692	70.329038	-135.464983	75.133374	-111.756160	242.636592	16.896878	-134.939450	-110.533861	1202.766498	-128.120555	238.762978	1188.295767	-142.020980	-238.044826	948.685269	-108.986689	303.263393	909.242418	-142.939241	-230.558169	822.910539	-323.758502	279.859480	783.503305	-348.547951
727	7.26000	69.738072	735.690464	72.357467	65.249388	1238.788723	-179.996587	66.609824	1346.384553	-318.513026	-8.473823	736.667431	73.766939	147.950076	734.713494	70.948013	-121.667239	456.584429	-220.964061	235.320373	436.059347	-211.524976	-102.500106	160.956484	44.247753	215.697858	115.524618	20.343521	-95.290888	128.482616	92.885696	208.304934	83.772493	69.566188	-133.265924	75.255424	-112.488400	244.379412	15.894084	-135.442257	-109.222515	1196.503662	-128.568364	239.883693	1182.407552	-142.365032	-236.306295	942.303817	-110.720158	304.922541	903.550248	-143.548559	-227.136087	817.208670	-326.046583	281.079003	777.608148	-349.184207
728	7.27000	71.378853	730.576736	73.263365	66.460999	1232.400283	-180.389273	67.898430	1339.353377	-319.229939	-6.818652	731.457094	74.629082	149.576455	729.696376	71.897664	-119.990664	455.498591	-223.399638	237.871230	434.643612	-213.553351	-99.997265	161.242130	43.221458	217.616342	115.013178	19.477054	-92.727465	128.935325	91.960432	210.165456	83.424294	68.803337	-131.066865	75.377473	-113.220640	246.122232	14.891290	-135.945064	-107.911169	1190.240826	-129.016173	241.004408	1176.519337	-142.709083	-234.567763	935.922365	-112.453627	306.581688	897.858078	-144.157876	-223.714005	811.506801	-328.334664	282.298526	771.712991	-349.820463
